# xmcd
#
# Track frame offsets: 
#        150
#        16935
#        43140
#        59930
#        86215
#
# Disc length: 1484 seconds
#
# Revision: 0
# Processed by: cddbd v1.5.2PL0 Copyright (c) Steve Scherf et al.
# Submitted via: ExactAudioCopy v1.0b1
#
DISCID=4405ca05
DTITLE=4 Eye - Sexy Music CDM
DYEAR=1992
DGENRE=House
TTITLE0=Sexy Music (Techno Vocal Radio Mix)
TTITLE1=Sexy Music (Techno Vocal 12'' Mix)
TTITLE2=Sexy Music (Latino Radio Mix)
TTITLE3=Sexy Music (Latino 12'' Mix)
TTITLE4=Sexy Music (Miami Mix)
EXTD=
EXTT0=
EXTT1=
EXTT2=
EXTT3=
EXTT4=
PLAYORDER=
